<?xml version="1.0" standalone="no"?>
<!DOCTYPE svg PUBLIC "-//W3C//DTD SVG 20010904//EN"
 "http://www.w3.org/TR/2001/REC-SVG-20010904/DTD/svg10.dtd">
<svg version="1.0" xmlns="http://www.w3.org/2000/svg"
 width="756.000000pt" height="756.000000pt" viewBox="0 0 756.000000 756.000000"
 preserveAspectRatio="xMidYMid meet">
<metadata>
Created by potrace 1.11, written by Peter Selinger 2001-2013
</metadata>
<g transform="translate(0.000000,756.000000) scale(0.100000,-0.100000)"
fill="#000000" stroke="none">
<path d="M3660 7350 c-26 -28 -66 -133 -75 -195 -2 -16 -8 -61 -14 -100 -11
-69 -15 -118 -26 -280 -3 -44 -8 -102 -10 -130 -2 -27 -7 -89 -10 -137 -7
-101 -8 -104 -29 -179 -30 -102 -21 -198 26 -297 32 -69 95 -140 147 -167 86
-44 188 -21 267 58 35 36 44 54 58 117 9 41 19 86 23 100 3 14 7 169 9 345 2
311 4 344 22 450 36 214 -64 378 -263 429 -81 22 -93 20 -125 -14z"/>
<path d="M1581 6919 c-131 -24 -221 -144 -208 -275 8 -80 13 -87 206 -303 36
-41 77 -86 91 -101 27 -30 43 -47 175 -195 50 -55 94 -105 100 -111 8 -9 73
-81 170 -188 11 -13 54 -60 95 -106 149 -166 176 -184 285 -184 80 0 134 23
186 77 46 48 61 84 67 157 5 75 -15 129 -71 192 -18 20 -48 54 -67 75 -18 21
-52 58 -74 83 -23 25 -75 83 -116 129 -41 46 -86 96 -100 111 -14 15 -50 55
-80 90 -30 35 -66 75 -80 90 -31 33 -152 168 -181 201 -43 50 -165 183 -183
200 -26 25 -76 48 -122 55 -22 3 -41 7 -44 8 -3 2 -25 -1 -49 -5z"/>
<path d="M5875 6797 c-76 -51 -238 -213 -341 -342 -179 -224 -417 -553 -448
-619 -22 -47 -24 -138 -3 -187 38 -93 138 -159 237 -158 116 0 171 38 271 186
40 60 158 224 261 365 216 295 320 451 344 514 14 38 15 49 4 72 -7 15 -18 38
-24 51 -28 62 -122 131 -203 149 -36 8 -44 6 -98 -31z"/>
<path d="M535 5703 c-58 -13 -163 -65 -177 -87 -6 -9 -18 -79 -23 -131 -3 -28
19 -93 38 -113 33 -35 226 -148 373 -219 73 -34 137 -63 142 -63 4 0 27 -9 50
-20 22 -11 47 -20 55 -20 7 0 17 -4 23 -9 5 -5 52 -23 104 -41 52 -19 100 -37
105 -40 6 -4 23 -10 40 -14 16 -4 48 -16 72 -27 23 -10 46 -19 50 -19 5 0 74
-25 153 -56 152 -59 197 -66 269 -43 102 33 181 137 181 238 0 90 -42 157
-135 216 -58 37 -491 207 -815 320 -451 157 -416 148 -505 128z"/>
<path d="M3608 5415 c-2 -1 -37 -5 -78 -9 -41 -3 -86 -8 -100 -11 -14 -3 -37
-7 -52 -10 -77 -11 -265 -67 -361 -108 -575 -244 -975 -759 -1062 -1365 -13
-95 -14 -407 -1 -462 3 -13 8 -42 11 -65 20 -139 116 -413 180 -516 14 -21 25
-41 25 -45 0 -11 93 -148 144 -213 114 -142 244 -261 401 -366 248 -167 507
-259 820 -295 69 -7 347 -5 395 4 14 2 47 7 73 11 161 22 364 89 527 173 387
202 662 501 834 909 25 60 71 210 81 262 3 14 7 37 10 51 26 117 36 363 21
490 -11 94 -14 113 -30 190 -66 314 -230 614 -469 853 -269 270 -615 444 -997
502 -25 4 -54 9 -65 11 -24 5 -303 13 -307 9z"/>
<path d="M6995 5352 c-84 -7 -301 -49 -435 -85 -25 -6 -47 -12 -50 -13 -6 -1
-81 -17 -92 -20 -5 -1 -9 -2 -10 -3 -2 -2 -13 -4 -25 -7 -11 -2 -72 -18 -135
-35 -62 -17 -124 -33 -137 -35 -60 -12 -179 -48 -211 -65 -83 -43 -133 -125
-132 -218 0 -68 18 -114 62 -165 73 -82 161 -101 316 -66 54 13 100 22 101 22
2 0 17 4 35 9 18 5 49 12 68 15 19 3 38 8 41 10 3 2 21 6 40 9 19 3 80 17 137
30 56 14 113 27 125 29 93 19 336 90 402 118 136 57 157 72 209 151 62 94 57
138 -31 252 l-54 70 -97 0 c-53 0 -110 -1 -127 -3z"/>
<path d="M7239 4020 c-21 -12 -318 -20 -864 -24 -411 -2 -432 -3 -477 -23
-165 -74 -205 -277 -79 -403 85 -85 70 -83 705 -76 539 7 616 9 763 21 169 13
266 108 267 260 1 100 -48 180 -137 226 -42 22 -153 33 -178 19z"/>
<path d="M389 3856 c-2 -2 -42 -6 -89 -10 -47 -3 -95 -8 -106 -10 -12 -2 -38
-7 -59 -10 -21 -4 -58 -15 -81 -26 -42 -18 -44 -21 -45 -62 0 -24 -3 -72 -5
-108 -11 -152 16 -197 136 -223 179 -39 419 -54 925 -58 235 -2 252 -1 290 18
56 29 94 69 121 129 64 137 4 279 -142 334 -57 21 -73 22 -500 26 -243 2 -443
2 -445 0z"/>
<path d="M1535 2885 c-35 -10 -665 -319 -705 -345 -8 -6 -24 -14 -35 -19 -11
-5 -67 -31 -125 -59 -58 -27 -134 -63 -170 -79 -133 -60 -193 -185 -150 -313
44 -131 202 -205 335 -156 141 50 1055 509 1100 551 99 94 102 256 6 352 -65
64 -173 93 -256 68z"/>
<path d="M5857 2736 c-147 -55 -210 -201 -147 -343 26 -59 57 -87 167 -148 48
-27 160 -91 248 -143 364 -214 524 -264 668 -211 104 38 151 106 156 226 4
106 -32 164 -154 245 -50 34 -414 218 -535 270 -45 20 -142 64 -198 90 -56 26
-155 33 -205 14z"/>
<path d="M2270 1931 c-54 -17 -90 -44 -217 -168 -329 -321 -418 -406 -546
-527 -74 -71 -148 -138 -164 -150 -67 -52 -119 -112 -132 -156 -13 -43 -16
-103 -7 -146 13 -62 128 -172 190 -181 62 -9 115 -7 146 6 45 20 106 61 146
97 322 301 448 422 709 679 190 188 207 214 201 319 -9 156 -176 272 -326 227z"/>
<path d="M5041 1784 c-134 -39 -210 -178 -171 -313 21 -73 433 -665 560 -805
107 -118 200 -168 295 -159 51 5 132 43 169 79 98 94 88 288 -19 364 -66 47
-221 249 -443 580 -57 85 -118 170 -135 188 -64 66 -166 93 -256 66z"/>
<path d="M3704 1595 c-57 -28 -82 -53 -113 -108 -27 -48 -29 -69 -37 -342 -4
-126 -8 -259 -10 -295 -19 -325 2 -546 55 -599 23 -23 130 -59 196 -66 41 -5
68 1 150 30 54 19 102 39 106 43 9 10 27 112 35 192 7 81 7 459 0 640 -14 330
-15 338 -36 383 -61 129 -220 185 -346 122z"/>
</g>
</svg>
